<mxfile host="app.diagrams.net" modified="2021-05-14T09:46:58.803Z" agent="5.0 (Windows NT 10.0; Win64; x64) AppleWebKit/537.36 (KHTML, like Gecko) Chrome/90.0.4430.212 Safari/537.36" etag="vqLcCWZ7t51LB9M88Djw" version="14.5.8" type="github">
  <diagram id="0oxOXPpbl2MvyMknku0a" name="Page-1">
    <mxGraphModel dx="1483" dy="829" grid="1" gridSize="10" guides="1" tooltips="1" connect="1" arrows="1" fold="1" page="1" pageScale="1" pageWidth="827" pageHeight="1169" math="0" shadow="0">
      <root>
        <mxCell id="0" />
        <mxCell id="1" parent="0" />
        <mxCell id="ysKK4QOxG-1aNT_mnxi2-3" value="" style="edgeStyle=orthogonalEdgeStyle;rounded=0;orthogonalLoop=1;jettySize=auto;html=1;" edge="1" parent="1" source="ysKK4QOxG-1aNT_mnxi2-1" target="ysKK4QOxG-1aNT_mnxi2-2">
          <mxGeometry relative="1" as="geometry" />
        </mxCell>
        <mxCell id="ysKK4QOxG-1aNT_mnxi2-1" value="&lt;p style=&quot;line-height: 150%&quot;&gt;&lt;font style=&quot;font-size: 14px&quot;&gt;&lt;b&gt;Quiero hacer la compra&lt;/b&gt;&lt;/font&gt;&lt;/p&gt;" style="ellipse;whiteSpace=wrap;html=1;strokeWidth=2;perimeterSpacing=0;fillColor=#f5f5f5;strokeColor=#666666;fontColor=#333333;" vertex="1" parent="1">
          <mxGeometry x="354" y="30" width="120" height="80" as="geometry" />
        </mxCell>
        <mxCell id="ysKK4QOxG-1aNT_mnxi2-6" value="" style="edgeStyle=orthogonalEdgeStyle;rounded=0;orthogonalLoop=1;jettySize=auto;html=1;entryX=0.5;entryY=0;entryDx=0;entryDy=0;" edge="1" parent="1" source="ysKK4QOxG-1aNT_mnxi2-2" target="ysKK4QOxG-1aNT_mnxi2-7">
          <mxGeometry relative="1" as="geometry">
            <mxPoint x="414" y="380" as="targetPoint" />
            <Array as="points">
              <mxPoint x="414" y="280" />
              <mxPoint x="140" y="280" />
            </Array>
          </mxGeometry>
        </mxCell>
        <mxCell id="ysKK4QOxG-1aNT_mnxi2-17" style="edgeStyle=orthogonalEdgeStyle;rounded=0;orthogonalLoop=1;jettySize=auto;html=1;" edge="1" parent="1" target="ysKK4QOxG-1aNT_mnxi2-10">
          <mxGeometry relative="1" as="geometry">
            <mxPoint x="414" y="280" as="sourcePoint" />
            <Array as="points">
              <mxPoint x="493" y="280" />
              <mxPoint x="520" y="280" />
            </Array>
          </mxGeometry>
        </mxCell>
        <mxCell id="ysKK4QOxG-1aNT_mnxi2-29" style="edgeStyle=orthogonalEdgeStyle;rounded=0;orthogonalLoop=1;jettySize=auto;html=1;exitX=0.5;exitY=1;exitDx=0;exitDy=0;entryX=0.5;entryY=0;entryDx=0;entryDy=0;" edge="1" parent="1" source="ysKK4QOxG-1aNT_mnxi2-2" target="ysKK4QOxG-1aNT_mnxi2-11">
          <mxGeometry relative="1" as="geometry">
            <Array as="points">
              <mxPoint x="414" y="280" />
              <mxPoint x="710" y="280" />
            </Array>
          </mxGeometry>
        </mxCell>
        <mxCell id="ysKK4QOxG-1aNT_mnxi2-2" value="&lt;b&gt;&lt;font style=&quot;font-size: 11px&quot;&gt;Â¿En que seccion quiero comprar?&lt;/font&gt;&lt;/b&gt;" style="rhombus;whiteSpace=wrap;html=1;strokeColor=#d6b656;strokeWidth=2;fillColor=#fff2cc;" vertex="1" parent="1">
          <mxGeometry x="334" y="150" width="159" height="100" as="geometry" />
        </mxCell>
        <mxCell id="ysKK4QOxG-1aNT_mnxi2-4" style="edgeStyle=orthogonalEdgeStyle;rounded=0;orthogonalLoop=1;jettySize=auto;html=1;exitX=0.5;exitY=1;exitDx=0;exitDy=0;" edge="1" parent="1" source="ysKK4QOxG-1aNT_mnxi2-2" target="ysKK4QOxG-1aNT_mnxi2-2">
          <mxGeometry relative="1" as="geometry" />
        </mxCell>
        <mxCell id="ysKK4QOxG-1aNT_mnxi2-48" style="edgeStyle=orthogonalEdgeStyle;rounded=0;orthogonalLoop=1;jettySize=auto;html=1;exitX=1;exitY=0.5;exitDx=0;exitDy=0;entryX=0.5;entryY=0;entryDx=0;entryDy=0;" edge="1" parent="1" source="ysKK4QOxG-1aNT_mnxi2-7" target="ysKK4QOxG-1aNT_mnxi2-32">
          <mxGeometry relative="1" as="geometry">
            <Array as="points">
              <mxPoint x="230" y="390" />
              <mxPoint x="230" y="580" />
              <mxPoint x="414" y="580" />
            </Array>
          </mxGeometry>
        </mxCell>
        <mxCell id="ysKK4QOxG-1aNT_mnxi2-7" value="&lt;font style=&quot;font-size: 17px&quot;&gt;&lt;b&gt;Charcuteria&lt;/b&gt;&lt;/font&gt;" style="rounded=1;whiteSpace=wrap;html=1;strokeWidth=2;fillColor=#dae8fc;strokeColor=#6c8ebf;" vertex="1" parent="1">
          <mxGeometry x="80" y="360" width="120" height="60" as="geometry" />
        </mxCell>
        <mxCell id="ysKK4QOxG-1aNT_mnxi2-49" style="edgeStyle=orthogonalEdgeStyle;rounded=0;orthogonalLoop=1;jettySize=auto;html=1;exitX=1;exitY=0.5;exitDx=0;exitDy=0;entryX=0.5;entryY=0;entryDx=0;entryDy=0;" edge="1" parent="1" source="ysKK4QOxG-1aNT_mnxi2-9" target="ysKK4QOxG-1aNT_mnxi2-32">
          <mxGeometry relative="1" as="geometry" />
        </mxCell>
        <mxCell id="ysKK4QOxG-1aNT_mnxi2-9" value="&lt;font style=&quot;font-size: 17px&quot;&gt;&lt;b&gt;Pescaderia&lt;/b&gt;&lt;/font&gt;" style="rounded=1;whiteSpace=wrap;html=1;strokeWidth=2;fillColor=#dae8fc;strokeColor=#6c8ebf;" vertex="1" parent="1">
          <mxGeometry x="260" y="360" width="120" height="60" as="geometry" />
        </mxCell>
        <mxCell id="ysKK4QOxG-1aNT_mnxi2-50" style="edgeStyle=orthogonalEdgeStyle;rounded=0;orthogonalLoop=1;jettySize=auto;html=1;exitX=1;exitY=0.5;exitDx=0;exitDy=0;entryX=1;entryY=0.5;entryDx=0;entryDy=0;" edge="1" parent="1" source="ysKK4QOxG-1aNT_mnxi2-10" target="ysKK4QOxG-1aNT_mnxi2-32">
          <mxGeometry relative="1" as="geometry">
            <Array as="points">
              <mxPoint x="600" y="390" />
              <mxPoint x="600" y="580" />
              <mxPoint x="414" y="580" />
              <mxPoint x="414" y="700" />
            </Array>
          </mxGeometry>
        </mxCell>
        <mxCell id="ysKK4QOxG-1aNT_mnxi2-10" value="&lt;font style=&quot;font-size: 17px&quot;&gt;&lt;b&gt;Panaderia&lt;/b&gt;&lt;/font&gt;" style="rounded=1;whiteSpace=wrap;html=1;strokeWidth=2;fillColor=#dae8fc;strokeColor=#6c8ebf;" vertex="1" parent="1">
          <mxGeometry x="460" y="360" width="120" height="60" as="geometry" />
        </mxCell>
        <mxCell id="ysKK4QOxG-1aNT_mnxi2-51" style="edgeStyle=orthogonalEdgeStyle;rounded=0;orthogonalLoop=1;jettySize=auto;html=1;exitX=1;exitY=0.5;exitDx=0;exitDy=0;entryX=1;entryY=0.5;entryDx=0;entryDy=0;" edge="1" parent="1" source="ysKK4QOxG-1aNT_mnxi2-11" target="ysKK4QOxG-1aNT_mnxi2-32">
          <mxGeometry relative="1" as="geometry">
            <Array as="points">
              <mxPoint x="790" y="390" />
              <mxPoint x="790" y="580" />
              <mxPoint x="414" y="580" />
              <mxPoint x="414" y="700" />
            </Array>
          </mxGeometry>
        </mxCell>
        <mxCell id="ysKK4QOxG-1aNT_mnxi2-11" value="&lt;font style=&quot;font-size: 17px&quot;&gt;&lt;b&gt;Fruteria&lt;/b&gt;&lt;/font&gt;" style="rounded=1;whiteSpace=wrap;html=1;strokeWidth=2;fillColor=#dae8fc;strokeColor=#6c8ebf;" vertex="1" parent="1">
          <mxGeometry x="650" y="360" width="120" height="60" as="geometry" />
        </mxCell>
        <mxCell id="ysKK4QOxG-1aNT_mnxi2-15" value="" style="endArrow=classic;html=1;entryX=0.5;entryY=0;entryDx=0;entryDy=0;" edge="1" parent="1" target="ysKK4QOxG-1aNT_mnxi2-9">
          <mxGeometry width="50" height="50" relative="1" as="geometry">
            <mxPoint x="320" y="280" as="sourcePoint" />
            <mxPoint x="440" y="240" as="targetPoint" />
          </mxGeometry>
        </mxCell>
        <mxCell id="ysKK4QOxG-1aNT_mnxi2-20" value="" style="edgeStyle=orthogonalEdgeStyle;rounded=0;orthogonalLoop=1;jettySize=auto;html=1;" edge="1" parent="1" source="ysKK4QOxG-1aNT_mnxi2-19" target="ysKK4QOxG-1aNT_mnxi2-7">
          <mxGeometry relative="1" as="geometry" />
        </mxCell>
        <mxCell id="ysKK4QOxG-1aNT_mnxi2-19" value="&lt;b&gt;&lt;font style=&quot;font-size: 17px&quot;&gt;Catalogo&lt;/font&gt;&lt;/b&gt;" style="shape=document;whiteSpace=wrap;html=1;boundedLbl=1;strokeWidth=2;fillColor=#d5e8d4;strokeColor=#82b366;" vertex="1" parent="1">
          <mxGeometry x="85" y="460" width="110" height="70" as="geometry" />
        </mxCell>
        <mxCell id="ysKK4QOxG-1aNT_mnxi2-26" value="" style="edgeStyle=orthogonalEdgeStyle;rounded=0;orthogonalLoop=1;jettySize=auto;html=1;" edge="1" parent="1" source="ysKK4QOxG-1aNT_mnxi2-21" target="ysKK4QOxG-1aNT_mnxi2-9">
          <mxGeometry relative="1" as="geometry" />
        </mxCell>
        <mxCell id="ysKK4QOxG-1aNT_mnxi2-21" value="&lt;b&gt;&lt;font style=&quot;font-size: 17px&quot;&gt;Catalogo&lt;/font&gt;&lt;/b&gt;" style="shape=document;whiteSpace=wrap;html=1;boundedLbl=1;strokeWidth=2;fillColor=#d5e8d4;strokeColor=#82b366;" vertex="1" parent="1">
          <mxGeometry x="265" y="460" width="110" height="70" as="geometry" />
        </mxCell>
        <mxCell id="ysKK4QOxG-1aNT_mnxi2-25" value="" style="edgeStyle=orthogonalEdgeStyle;rounded=0;orthogonalLoop=1;jettySize=auto;html=1;" edge="1" parent="1" source="ysKK4QOxG-1aNT_mnxi2-22" target="ysKK4QOxG-1aNT_mnxi2-10">
          <mxGeometry relative="1" as="geometry" />
        </mxCell>
        <mxCell id="ysKK4QOxG-1aNT_mnxi2-22" value="&lt;b&gt;&lt;font style=&quot;font-size: 17px&quot;&gt;Catalogo&lt;/font&gt;&lt;/b&gt;" style="shape=document;whiteSpace=wrap;html=1;boundedLbl=1;strokeWidth=2;fillColor=#d5e8d4;strokeColor=#82b366;" vertex="1" parent="1">
          <mxGeometry x="465" y="460" width="110" height="70" as="geometry" />
        </mxCell>
        <mxCell id="ysKK4QOxG-1aNT_mnxi2-24" value="" style="edgeStyle=orthogonalEdgeStyle;rounded=0;orthogonalLoop=1;jettySize=auto;html=1;" edge="1" parent="1" source="ysKK4QOxG-1aNT_mnxi2-23" target="ysKK4QOxG-1aNT_mnxi2-11">
          <mxGeometry relative="1" as="geometry" />
        </mxCell>
        <mxCell id="ysKK4QOxG-1aNT_mnxi2-23" value="&lt;b&gt;&lt;font style=&quot;font-size: 17px&quot;&gt;Catalogo&lt;/font&gt;&lt;/b&gt;" style="shape=document;whiteSpace=wrap;html=1;boundedLbl=1;strokeWidth=2;fillColor=#d5e8d4;strokeColor=#82b366;" vertex="1" parent="1">
          <mxGeometry x="655" y="460" width="110" height="70" as="geometry" />
        </mxCell>
        <mxCell id="ysKK4QOxG-1aNT_mnxi2-36" style="edgeStyle=orthogonalEdgeStyle;rounded=0;orthogonalLoop=1;jettySize=auto;html=1;exitX=0;exitY=0.5;exitDx=0;exitDy=0;entryX=0;entryY=0.5;entryDx=0;entryDy=0;" edge="1" parent="1" source="ysKK4QOxG-1aNT_mnxi2-32" target="ysKK4QOxG-1aNT_mnxi2-2">
          <mxGeometry relative="1" as="geometry">
            <Array as="points">
              <mxPoint x="30" y="700" />
              <mxPoint x="30" y="200" />
            </Array>
          </mxGeometry>
        </mxCell>
        <mxCell id="ysKK4QOxG-1aNT_mnxi2-38" style="edgeStyle=orthogonalEdgeStyle;rounded=0;orthogonalLoop=1;jettySize=auto;html=1;exitX=0.5;exitY=1;exitDx=0;exitDy=0;entryX=0.5;entryY=0;entryDx=0;entryDy=0;" edge="1" parent="1" source="ysKK4QOxG-1aNT_mnxi2-32" target="ysKK4QOxG-1aNT_mnxi2-37">
          <mxGeometry relative="1" as="geometry" />
        </mxCell>
        <mxCell id="ysKK4QOxG-1aNT_mnxi2-32" value="&lt;font style=&quot;font-size: 13px&quot;&gt;&lt;b&gt;Â¿Comprar en alguna&lt;br&gt;&amp;nbsp;otra seccion?&lt;/b&gt;&lt;/font&gt;" style="rhombus;whiteSpace=wrap;html=1;strokeWidth=2;fillColor=#fff2cc;strokeColor=#d6b656;" vertex="1" parent="1">
          <mxGeometry x="328.5" y="640" width="171" height="120" as="geometry" />
        </mxCell>
        <mxCell id="ysKK4QOxG-1aNT_mnxi2-41" value="" style="edgeStyle=orthogonalEdgeStyle;rounded=0;orthogonalLoop=1;jettySize=auto;html=1;" edge="1" parent="1" source="ysKK4QOxG-1aNT_mnxi2-37" target="ysKK4QOxG-1aNT_mnxi2-39">
          <mxGeometry relative="1" as="geometry" />
        </mxCell>
        <mxCell id="ysKK4QOxG-1aNT_mnxi2-43" value="" style="edgeStyle=orthogonalEdgeStyle;rounded=0;orthogonalLoop=1;jettySize=auto;html=1;" edge="1" parent="1" source="ysKK4QOxG-1aNT_mnxi2-37" target="ysKK4QOxG-1aNT_mnxi2-42">
          <mxGeometry relative="1" as="geometry" />
        </mxCell>
        <mxCell id="ysKK4QOxG-1aNT_mnxi2-37" value="&lt;font style=&quot;font-size: 14px&quot;&gt;&lt;b&gt;AÃ±adir datos para la entrega&lt;/b&gt;&lt;/font&gt;" style="rounded=1;whiteSpace=wrap;html=1;strokeWidth=2;fillColor=#b0e3e6;strokeColor=#0e8088;" vertex="1" parent="1">
          <mxGeometry x="354" y="840" width="120" height="60" as="geometry" />
        </mxCell>
        <mxCell id="ysKK4QOxG-1aNT_mnxi2-39" value="&lt;b&gt;&lt;font style=&quot;font-size: 17px&quot;&gt;Datos&lt;/font&gt;&lt;/b&gt;" style="shape=document;whiteSpace=wrap;html=1;boundedLbl=1;strokeWidth=2;fillColor=#d5e8d4;strokeColor=#82b366;" vertex="1" parent="1">
          <mxGeometry x="560" y="842.5" width="110" height="55" as="geometry" />
        </mxCell>
        <mxCell id="ysKK4QOxG-1aNT_mnxi2-42" value="&lt;font size=&quot;1&quot;&gt;&lt;b style=&quot;font-size: 16px&quot;&gt;Finalizar&lt;/b&gt;&lt;/font&gt;" style="ellipse;whiteSpace=wrap;html=1;rounded=1;strokeColor=#666666;strokeWidth=2;fillColor=#f5f5f5;fontColor=#333333;" vertex="1" parent="1">
          <mxGeometry x="354" y="950" width="120" height="80" as="geometry" />
        </mxCell>
        <mxCell id="ysKK4QOxG-1aNT_mnxi2-44" value="&lt;b&gt;&lt;font style=&quot;font-size: 15px&quot;&gt;A&lt;/font&gt;&lt;/b&gt;" style="text;html=1;strokeColor=none;fillColor=none;align=center;verticalAlign=middle;whiteSpace=wrap;rounded=0;" vertex="1" parent="1">
          <mxGeometry x="100" y="300" width="40" height="20" as="geometry" />
        </mxCell>
        <mxCell id="ysKK4QOxG-1aNT_mnxi2-45" value="&lt;b&gt;&lt;font style=&quot;font-size: 15px&quot;&gt;B&lt;/font&gt;&lt;/b&gt;" style="text;html=1;strokeColor=none;fillColor=none;align=center;verticalAlign=middle;whiteSpace=wrap;rounded=0;" vertex="1" parent="1">
          <mxGeometry x="288.5" y="300" width="40" height="20" as="geometry" />
        </mxCell>
        <mxCell id="ysKK4QOxG-1aNT_mnxi2-46" value="&lt;b&gt;&lt;font style=&quot;font-size: 15px&quot;&gt;C&lt;/font&gt;&lt;/b&gt;" style="text;html=1;strokeColor=none;fillColor=none;align=center;verticalAlign=middle;whiteSpace=wrap;rounded=0;" vertex="1" parent="1">
          <mxGeometry x="480" y="300" width="40" height="20" as="geometry" />
        </mxCell>
        <mxCell id="ysKK4QOxG-1aNT_mnxi2-47" value="&lt;b&gt;&lt;font style=&quot;font-size: 15px&quot;&gt;D&lt;/font&gt;&lt;/b&gt;" style="text;html=1;strokeColor=none;fillColor=none;align=center;verticalAlign=middle;whiteSpace=wrap;rounded=0;" vertex="1" parent="1">
          <mxGeometry x="680" y="300" width="40" height="20" as="geometry" />
        </mxCell>
        <mxCell id="ysKK4QOxG-1aNT_mnxi2-54" value="&lt;b style=&quot;color: rgb(0 , 0 , 0) ; font-family: &amp;#34;helvetica&amp;#34; ; font-size: 12px ; font-style: normal ; letter-spacing: normal ; text-align: center ; text-indent: 0px ; text-transform: none ; word-spacing: 0px ; background-color: rgb(248 , 249 , 250)&quot;&gt;&lt;font style=&quot;font-size: 22px&quot;&gt;SI&lt;/font&gt;&lt;/b&gt;" style="text;whiteSpace=wrap;html=1;" vertex="1" parent="1">
          <mxGeometry x="180" y="660" width="40" height="30" as="geometry" />
        </mxCell>
        <mxCell id="ysKK4QOxG-1aNT_mnxi2-55" value="&lt;b style=&quot;color: rgb(0 , 0 , 0) ; font-size: 12px ; font-style: normal ; letter-spacing: normal ; text-indent: 0px ; text-transform: none ; word-spacing: 0px ; font-family: &amp;#34;helvetica&amp;#34; ; text-align: center ; background-color: rgb(248 , 249 , 250)&quot;&gt;&lt;font style=&quot;font-size: 22px&quot;&gt;NO&lt;/font&gt;&lt;/b&gt;" style="text;whiteSpace=wrap;html=1;" vertex="1" parent="1">
          <mxGeometry x="370" y="780" width="50" height="30" as="geometry" />
        </mxCell>
      </root>
    </mxGraphModel>
  </diagram>
</mxfile>
